<?xml version="1.0" encoding="utf-8"?>
<!-- Generator: Adobe Illustrator 25.2.3, SVG Export Plug-In . SVG Version: 6.00 Build 0)  -->
<svg version="1.1" xmlns="http://www.w3.org/2000/svg" xmlns:xlink="http://www.w3.org/1999/xlink" x="0px" y="0px"
	 viewBox="0 0 700 395" style="enable-background:new 0 0 700 395;" xml:space="preserve">
<style type="text/css">
	.st0{fill:#000222;}
	.st1{fill:#FFFFFF;}
</style>
<g id="Layer_1">
	<rect class="st0" width="700" height="395"/>
</g>
<g id="Layer_3">
	<g>
		<path class="st1" d="M273.5,368.6l1.1,4.2c0.2,0.9,0.5,1.8,0.6,2.6h0.1c0.2-0.8,0.5-1.7,0.7-2.6l1.3-4.2h1.3l1.3,4.1
			c0.3,1,0.5,1.9,0.7,2.7h0.1c0.1-0.8,0.4-1.7,0.6-2.7l1.2-4.1h1.5l-2.7,8.2H280l-1.3-3.9c-0.3-0.9-0.5-1.7-0.7-2.7h0
			c-0.2,1-0.5,1.8-0.7,2.7l-1.3,3.9h-1.4l-2.5-8.2H273.5z"/>
		<path class="st1" d="M286.3,368.6l1.1,4.2c0.2,0.9,0.5,1.8,0.6,2.6h0.1c0.2-0.8,0.5-1.7,0.7-2.6l1.3-4.2h1.3l1.3,4.1
			c0.3,1,0.5,1.9,0.7,2.7h0.1c0.1-0.8,0.4-1.7,0.6-2.7l1.2-4.1h1.5l-2.7,8.2h-1.4l-1.3-3.9c-0.3-0.9-0.5-1.7-0.7-2.7h0
			c-0.2,1-0.5,1.8-0.7,2.7l-1.3,3.9h-1.4l-2.5-8.2H286.3z"/>
		<path class="st1" d="M299,368.6l1.1,4.2c0.2,0.9,0.5,1.8,0.6,2.6h0.1c0.2-0.8,0.5-1.7,0.7-2.6l1.3-4.2h1.3l1.3,4.1
			c0.3,1,0.5,1.9,0.7,2.7h0.1c0.1-0.8,0.4-1.7,0.6-2.7l1.2-4.1h1.5l-2.7,8.2h-1.4l-1.3-3.9c-0.3-0.9-0.5-1.7-0.7-2.7h0
			c-0.2,1-0.5,1.8-0.7,2.7l-1.3,3.9h-1.4l-2.5-8.2H299z"/>
		<path class="st1" d="M309.9,375.9c0-0.6,0.4-1.1,1-1.1c0.6,0,1,0.4,1,1.1c0,0.6-0.4,1.1-1,1.1C310.3,377,309.9,376.5,309.9,375.9z
			"/>
		<path class="st1" d="M313.5,375.3c0.4,0.3,1.2,0.6,2,0.6c1.1,0,1.6-0.5,1.6-1.2c0-0.7-0.4-1.1-1.5-1.5c-1.5-0.5-2.2-1.3-2.2-2.3
			c0-1.3,1.1-2.4,2.8-2.4c0.8,0,1.6,0.2,2,0.5l-0.4,1.1c-0.3-0.2-0.9-0.5-1.7-0.5c-0.9,0-1.4,0.5-1.4,1.1c0,0.7,0.5,1,1.6,1.4
			c1.4,0.5,2.2,1.3,2.2,2.5c0,1.4-1.1,2.5-3.1,2.5c-0.9,0-1.7-0.2-2.3-0.6L313.5,375.3z"/>
		<path class="st1" d="M327.4,374.6c0,0.9,0,1.6,0.1,2.2h-1.3l-0.1-1.3h0c-0.4,0.7-1.3,1.5-2.7,1.5c-1.3,0-2.8-0.7-2.8-3.6v-4.8h1.5
			v4.6c0,1.6,0.5,2.6,1.8,2.6c1,0,1.7-0.7,2-1.4c0.1-0.2,0.1-0.5,0.1-0.8v-5h1.5V374.6z"/>
		<path class="st1" d="M329.8,371.1c0-1,0-1.8-0.1-2.6h1.3l0.1,1.6h0.1c0.4-1.1,1.3-1.8,2.3-1.8c0.2,0,0.3,0,0.4,0.1v1.4
			c-0.2,0-0.3-0.1-0.5-0.1c-1.1,0-1.8,0.8-2,1.9c0,0.2-0.1,0.4-0.1,0.7v4.4h-1.5V371.1z"/>
		<path class="st1" d="M339.9,376.8l-0.1-1h-0.1c-0.5,0.6-1.3,1.2-2.5,1.2c-1.7,0-2.5-1.2-2.5-2.4c0-2,1.8-3.1,4.9-3.1v-0.2
			c0-0.7-0.2-1.9-1.9-1.9c-0.8,0-1.6,0.2-2.1,0.6l-0.3-1c0.7-0.4,1.7-0.7,2.7-0.7c2.5,0,3.1,1.7,3.1,3.4v3.1c0,0.7,0,1.4,0.1,2
			H339.9z M339.7,372.6c-1.6,0-3.5,0.3-3.5,1.9c0,1,0.6,1.4,1.4,1.4c1.1,0,1.8-0.7,2-1.4c0.1-0.2,0.1-0.3,0.1-0.5V372.6z"/>
		<path class="st1" d="M343.5,364.7h1.5v5.1h0c0.2-0.4,0.6-0.8,1.1-1.1c0.4-0.3,1-0.4,1.5-0.4c1.1,0,2.9,0.7,2.9,3.5v4.9H349v-4.7
			c0-1.3-0.5-2.4-1.9-2.4c-1,0-1.7,0.7-2,1.5c-0.1,0.2-0.1,0.4-0.1,0.7v5h-1.5V364.7z"/>
		<path class="st1" d="M358.6,375.5L358.6,375.5c-0.5,0.8-1.4,1.5-2.7,1.5c-1.9,0-3.5-1.7-3.5-4.2c0-3.1,2-4.4,3.7-4.4
			c1.3,0,2.1,0.6,2.5,1.4h0l0.1-1.2h1.4c0,0.7-0.1,1.4-0.1,2.3v9.3h-1.5V375.5z M358.6,371.9c0-0.2,0-0.4-0.1-0.6
			c-0.2-0.9-1-1.7-2.1-1.7c-1.5,0-2.5,1.3-2.5,3.2c0,1.6,0.8,3.1,2.4,3.1c1,0,1.8-0.6,2.1-1.6c0.1-0.2,0.1-0.5,0.1-0.7V371.9z"/>
		<path class="st1" d="M369.4,374.6c0,0.9,0,1.6,0.1,2.2h-1.3l-0.1-1.3h0c-0.4,0.7-1.3,1.5-2.7,1.5c-1.3,0-2.8-0.7-2.8-3.6v-4.8h1.5
			v4.6c0,1.6,0.5,2.6,1.8,2.6c1,0,1.7-0.7,2-1.4c0.1-0.2,0.1-0.5,0.1-0.8v-5h1.5V374.6z"/>
		<path class="st1" d="M371.9,371.1c0-1,0-1.8-0.1-2.6h1.3l0.1,1.6h0.1c0.4-1.1,1.3-1.8,2.3-1.8c0.2,0,0.3,0,0.4,0.1v1.4
			c-0.2,0-0.3-0.1-0.5-0.1c-1.1,0-1.8,0.8-2,1.9c0,0.2-0.1,0.4-0.1,0.7v4.4h-1.5V371.1z"/>
		<path class="st1" d="M381.9,376.8l-0.1-1h-0.1c-0.5,0.6-1.3,1.2-2.5,1.2c-1.7,0-2.5-1.2-2.5-2.4c0-2,1.8-3.1,4.9-3.1v-0.2
			c0-0.7-0.2-1.9-1.9-1.9c-0.8,0-1.6,0.2-2.1,0.6l-0.3-1c0.7-0.4,1.7-0.7,2.7-0.7c2.5,0,3.1,1.7,3.1,3.4v3.1c0,0.7,0,1.4,0.1,2
			H381.9z M381.7,372.6c-1.6,0-3.5,0.3-3.5,1.9c0,1,0.6,1.4,1.4,1.4c1.1,0,1.8-0.7,2-1.4c0.1-0.2,0.1-0.3,0.1-0.5V372.6z"/>
		<path class="st1" d="M385.6,370.8c0-0.9,0-1.5-0.1-2.2h1.3l0.1,1.4h0c0.4-0.8,1.4-1.5,2.7-1.5c1.1,0,2.9,0.7,2.9,3.5v4.9h-1.5
			v-4.7c0-1.3-0.5-2.4-1.9-2.4c-1,0-1.8,0.7-2,1.5c-0.1,0.2-0.1,0.4-0.1,0.7v4.9h-1.5V370.8z"/>
		<path class="st1" d="M394.6,375.9c0-0.6,0.4-1.1,1-1.1c0.6,0,1,0.4,1,1.1c0,0.6-0.4,1.1-1,1.1C395,377,394.6,376.5,394.6,375.9z"
			/>
		<path class="st1" d="M404.4,376.5c-0.4,0.2-1.3,0.5-2.4,0.5c-2.5,0-4.1-1.7-4.1-4.2c0-2.5,1.7-4.4,4.4-4.4c0.9,0,1.7,0.2,2.1,0.4
			l-0.3,1.2c-0.4-0.2-0.9-0.4-1.7-0.4c-1.9,0-2.9,1.4-2.9,3.1c0,1.9,1.2,3.1,2.9,3.1c0.8,0,1.4-0.2,1.8-0.4L404.4,376.5z"/>
		<path class="st1" d="M413.5,372.6c0,3-2.1,4.4-4.1,4.4c-2.2,0-3.9-1.6-3.9-4.2c0-2.8,1.8-4.4,4.1-4.4
			C411.9,368.4,413.5,370.1,413.5,372.6z M406.9,372.7c0,1.8,1,3.2,2.5,3.2c1.4,0,2.5-1.3,2.5-3.2c0-1.4-0.7-3.2-2.5-3.2
			S406.9,371.1,406.9,372.7z"/>
		<path class="st1" d="M415.4,370.8c0-0.9,0-1.5-0.1-2.2h1.3l0.1,1.3h0.1c0.5-0.8,1.2-1.5,2.6-1.5c1.1,0,2,0.7,2.3,1.6h0
			c0.3-0.5,0.6-0.8,0.9-1.1c0.5-0.4,1-0.6,1.8-0.6c1.1,0,2.7,0.7,2.7,3.6v4.8h-1.5v-4.7c0-1.6-0.6-2.5-1.8-2.5
			c-0.9,0-1.5,0.6-1.8,1.4c-0.1,0.2-0.1,0.5-0.1,0.7v5.1h-1.5v-4.9c0-1.3-0.6-2.3-1.7-2.3c-0.9,0-1.6,0.7-1.9,1.5
			c-0.1,0.2-0.1,0.5-0.1,0.7v5h-1.5V370.8z"/>
	</g>
</g>
<g id="Layer_4">
	<path class="st1" d="M317,99.9c6.6,0,10.2,4.3,11,12.9c0,7.8-10.1,23.5-30.4,47.2H297v-0.6c0-3.7,7.3-15.1,22-34.3l1.3-4.5v-3.9
		c-1-2.2-3.4-3.3-7.2-3.3c-27.1,3.9-59,16.8-95.7,38.8l-2.6,3.3c0.9,2.2,10.1,9.1,27.5,20.9c17.4,11.7,35.2,27,53.3,45.7
		c14,18.1,24.8,27.2,32.3,27.2l7.1,0.7c7.8,0,13.6-2.4,17.5-7.2v-5.2l-10.3-87.9c-0.9-13.2-2-22.8-3.3-29c1.9-7.4,3.6-11,5.2-11
		l5.2,12.3c3,5.6,5.2,10.5,6.5,14.8c-0.6,1.7-1.3,2.6-1.9,2.6l-3.9-3.2h-1.3c6.9,54,10.3,83.8,10.3,89.2v0.6
		c0,21.5-3.4,32.3-10.3,32.3c-4.5,3-9.9,4.6-16.2,4.6h-0.6c-13.2,0-26.8-10.8-40.8-32.3l-22.6-20.1h-1.3v0.7
		c3,5.9,4.5,12.1,4.5,18.7c0,12.4-4.5,19.7-13.5,22c-2.7,2.8-12.4,6.7-29.1,11.6l-0.6,0.7v0.6l1.9,9.7v5.8l0.7,0.7
		c-1.2,9-5.5,13.5-12.9,13.5c-5.7,0-12.2-3.9-19.4-11.6l-7.2-12.2c-4.3,0-7.7-1.3-10.3-3.9h-4.5c-12,0-21.4-4.7-28.4-14.2H147
		c-21.4,12.1-41.9,19-61.5,20.7c-21.1,0-34-9.3-38.8-27.8v-3.9c0-5.3,1.7-12.4,5.2-21.3c-4.3-6.1-6.5-13.4-6.5-22V193
		c0-3.6,3-14.1,9.1-31.7h1.3v2c-3.9,12.4-5.8,22.5-5.8,30.3v2c0,7.2,2.4,11.9,7.1,14.2c1.4,0,3-2.6,4.6-7.8h0.6
		c0.9,0,1.3,0.6,1.3,1.9c-2,11.7-5,17.5-9.1,17.5c-1.7,4.2-2.6,8.5-2.6,12.9c3,16.8,13.6,25.2,31.7,25.2h7.8
		c12.6,0,29.5-5.4,50.4-16.1l1.3-2.6l-3.3-14.2c1.5-16.8,6.7-25.3,15.5-25.3c7.8,4.7,11.6,10.9,11.6,18.8c0,9.4-3,17.6-9.1,24.6v1.3
		c3.1,4.7,8.7,7.1,16.8,7.1h9.1c7.8,0,11.6-3.4,11.6-10.3l11.6-36.8h2.6c4.3,11.4,6.5,20.8,6.5,28.3c0,7.5-1.3,13.1-3.9,16.9v1.9
		h0.7c35.7-6,53.6-13.1,53.6-21.3v-0.7c0-5.9-9.1-18.6-27.2-38.1c-19.4-15.6-29-26.2-29-31.7l-0.7-5.2c0-9.4,5.8-16.8,17.5-22
		C261.7,115.1,291.7,103.7,317,99.9z M222,106.3l0.6,1.9c0,3.4-4.1,6.2-12.2,8.4l-53.7,24.6l-0.6-0.7V140c0-4.4,7.8-9.5,23.3-15.5
		C205.1,112.4,219.3,106.3,222,106.3z M374.6,111.5h0.6c4.2,6.7,8.3,16.8,12.3,30.3l-0.7,2h-1.3l-4.5-3.3l-0.7,0.7v5.8
		c5.2,38.9,8.4,68.2,9.7,87.9l-0.7,2l0.7,3.2c-1,16.6-2.9,25.6-5.9,27.2h-0.6V266H383l0.7-0.6v-12.9l-0.7-0.7l0.7-0.6
		c-0.9-15.2-4.7-53-11.6-113.2l0.6-0.6v-0.7c-0.6-7.3-1.5-12-2.6-14.2C372,115.2,373.5,111.5,374.6,111.5z M431.5,111.5h0.6
		c1.6,0,2.9,2.4,3.9,7.1l-1.3,11.6c4.8,3.9,7.2,6.7,7.2,8.4l-0.7,3.2h-0.6l-9.1-4.5c-14,13.2-23.9,20.1-29.7,20.7l-5.2,3.2h-0.7
		l-1.3-1.3c0.5-1,6.9-5.3,19.4-12.9c8.6-6.3,12.9-10.8,12.9-13.5l-4.5-6.5v-2C424,116,427,111.5,431.5,111.5z M576.9,112.1
		c3.9,2.1,5.9,4.5,5.9,7.2v0.6c0,2.2-0.7,3.5-2,3.9h-0.6l-4.6-3.9h-1.9c-2.2,1.3-3.3,2.6-3.3,3.9c-0.6,21.1-2.1,31.7-4.5,31.7h-0.7
		c-5.3-13.4-11.3-20.1-18.1-20.1c-3.4-2.9-5.1-5.1-5.2-6.5c0.7-3.9,1.6-5.8,2.6-5.8h1.3c4,0,10.5,6,19.4,18.1l1.3-1.3v-7.8
		C566.6,122.6,570,115.9,576.9,112.1z M101.1,114.1c3.4,1.3,5.2,3.9,5.2,7.8h0.7c-0.9,3.4-1.8,5.2-2.6,5.2l-4.6-4.6h-1.9l-1.3,1.3
		c0,22.9-4.5,37.5-13.6,44c-4.6,2.6-7.6,3.9-9.1,3.9V171c11.2-10.9,16.8-17.6,16.8-20.1c-6.2-11.2-10.9-16.8-14.2-16.8
		c-6,0-9.1-2.8-9.1-8.4c0-3.3,0.9-5.2,2.6-5.9h0.7c4.6,0,11.5,6.5,20.7,19.4h1.3V138C93.3,122.1,96.1,114.1,101.1,114.1z
		 M519.4,114.7l1.3,1.3v0.7c0,3.8-9.9,10.7-29.7,20.7c-14.7,9-25.4,15.1-32.3,18.1v-1.3c0-4.3,4.1-8.1,12.2-11.6L519.4,114.7z
		 M624.2,114.7h3.2c2.9,0,4.6,6.9,5.2,20.7c2.6,1.6,3.9,3.5,3.9,5.9v1.9l-1.3,1.3h-1.3l-3.9-2.6H628c-19.1,17.5-35.5,28-49.1,31.7
		h-2.6v-0.7l41.4-26.5c3.9-3,5.8-5.6,5.8-7.8c-4.3-3.9-6.5-7.4-6.5-10.3C619.2,119.2,621.6,114.7,624.2,114.7z M138.6,116h0.7
		l-4.6,21.4v7.1c1.1,5.6,3,9,5.9,10.3h1.9c1.1,0,2-1.9,2.6-5.8h2v1.9c0,8.2-2.6,13-7.8,14.2c-6.5-2.2-9.7-9.1-9.7-20.7
		C133.3,125.5,136.3,116,138.6,116z M426.3,123.2l3.2,3.2h1.3l1.3-1.3v-1.9c0-2.2-0.6-3.5-1.9-3.9h-2
		C427,119.7,426.3,121,426.3,123.2z M620.3,126.3l6.5,5.2l1.9-0.6v-1.3c-0.6-4.8-1.7-7.2-3.2-7.2h-0.7
		C621.8,122.5,620.3,123.8,620.3,126.3z M269.2,141.3h0.7v0.6l-2.6,12.3c0,5.2,1.5,8.6,4.5,10.3h0.7c0.7,0,1.8-2,3.2-5.9h0.7
		l0.6,0.7v0.6c0,4.3-1.9,8.4-5.8,12.3h-2c-2.5-1-4.4-4.5-5.8-10.3C264.8,151.1,266.7,144.2,269.2,141.3z M527.8,155.5h0.7
		c-2.2,5.9-3.3,10.7-3.3,14.4c0,3.6,1.7,6.6,5.2,8.9h0.7c1.1,0,2.2-2,3.2-5.9h1.3l0.7,2c-1.8,7.8-4.2,11.6-7.2,11.6
		c-3.5,0-5.9-3.7-7.1-11v-0.6C522,168,523.9,161.5,527.8,155.5z M441.2,160c6.5,3.7,9.7,6.9,9.7,9.8c0,2.8-1.7,5.6-5.2,8.3h-1.3
		c-5.5-4.3-8.7-6.5-9.7-6.5c-3.1,5.6-5,8.4-5.8,8.4c-2.4,0-6-2.6-11-7.8V171c0-2.7,1.7-5.5,5.2-8.4l10.3,5.2
		C437.5,162.5,440.1,160,441.2,160z M628,162.5h0.6l-3.2,7.2v4.5c0,5,1.1,7.8,3.2,8.4h1.3c1.7-0.9,2.6-2,2.6-3.3h0.7l0.6,0.7h0.7
		c-1,4.8-3.2,8.2-6.5,10.3c-3.9,0-5.9-3.7-5.9-11C622.2,174,624.1,168.4,628,162.5z M182,172.3c12.5,0.5,18.7,2.2,18.7,5.2
		c-5.1,9-10.5,13.5-16.1,13.5c0,0.6-1.5,1.2-4.6,2l-0.6-0.7v-0.6l8.4-7.8v-1.3l-7.1-0.7c-3.3,0-6.6,1.1-9.7,3.3l-0.6-0.7
		C170.3,179.1,174.2,175,182,172.3z M480.6,173.6l14.2,15.5v1.3l-3.3,0.6h-1.9v0.7c6.9,13.6,10.3,21.1,10.3,22.6l0.6,5.2
		c0,12.1-6,22.7-18.1,31.7c-1.7,2.9-2.6,5.5-2.6,7.8v1.3c0,9.7,4.3,16.6,12.9,20.7c1.7,0.9,4.1,1.3,7.2,1.3h5.2
		c13.8,0,31.9-12.1,54.3-36.2l0.6-3.3l-1.9-2.6l-17.5,3.3c-10.3-1.1-15.5-5.6-15.5-13.6v-1.3c1.8-13.8,7.6-20.7,17.5-20.7
		c5,0,11.7,5.2,20,15.5h0.7c2.4,0,8.9-3.9,19.4-11.6c1.6-1.3,3-1.9,4.5-1.9l2,1.9l-0.7,4.6v1.9c2.4,7.4,6.5,11,12.3,11h6.5
		c7.1,0,14-6.9,20.7-20.7l1.9-1.3l1.3,1.3l-2.6,8.4v1.3c3.4,4.3,8.2,6.5,14.2,6.5h3.3c1.3,0,1.9-0.8,1.9-2.3s-1.1-3.8-3.2-6.7
		c1-6.9,2-10.3,3.2-10.3h1.3c1.4,0,3.2,4.5,5.2,13.6v1.3c-1.7,12.5-6,18.7-12.9,18.7c-6.2,0-12.2-3.4-18.1-10.3
		c-7.3,9.5-14.4,14.2-21.3,14.2h-1.3c-8.4,0-14.3-5.4-17.5-16.1v-1.3h-2.6c-9.9,6.2-14.8,11.4-14.8,15.5c0,10.8-7.3,21.8-22,32.9
		c-14.4,14.3-28.9,21.4-43.4,21.4h-1.9c-15.5-3.3-23.3-12.6-23.3-27.8l0.6-10.9h-0.6c-30,19-50.1,28.4-60.2,28.4l-30.3,6.5l-2-0.7
		v-1.3c35.1-12.8,65.7-28.3,91.8-46.5c6.6-4.1,13.3-10.2,20.1-18.1v-1.3l-13.6-28.4l-3.9-11.6C478.5,176.8,479.6,173.6,480.6,173.6z
		 M139.9,174.9h1.3c4.5,2.4,7.5,4.8,9.1,7.1v1.3c0,2.4-1.7,5.4-5.2,9.1c-5.9-2.5-9.4-5.1-10.3-7.8
		C135.8,180.2,137.5,176.9,139.9,174.9z M322.9,176.2h0.6c4.8,0,7.2,3.4,7.2,10.3c-0.7,1.7-1.4,2.6-2,2.6h-0.6l-5.2-4.6h-1.3
		l-0.7,2.6l0.7,0.7l-3.3,27.2h-1.9c-4.2-11.7-8.7-17.5-13.6-17.5c-2.8,0-4.7-2.2-5.8-6.5c0.9-4.7,1.9-7.1,3.2-7.1
		c3.2,0,8.6,4.9,16.2,14.8l1.3-3.9v-5.2C317.7,183.5,319.4,179,322.9,176.2z M452.8,183.2c0.9,0,1.3,0.7,1.3,2
		c-1.1,6-5.2,13.8-12.2,23.3c0,0.9,3.2,3.9,9.7,9.1c2.6,4.6,3.9,7.6,3.9,9.1c0,12.9-5.4,21.3-16.1,25.2c0,1-3,2.1-9.1,3.3
		c-5.5,0-8.9-3.7-10.3-11c0-6.7,2.4-16,7.1-27.8v-0.7c-11.6-9.5-17.4-15.8-17.4-18.7V191l0.6-3.2h2.6c9.5,3.9,14.9,6.6,16.2,8.4
		l-3.3,3.3c3.6,3.9,6.6,5.8,9.1,5.8L452.8,183.2z M99.8,193h1.3v0.6c-1.7,8.1-2.6,14.1-2.6,18.1v1.3c0,6.9,1.7,11.4,5.2,13.6h0.7
		l4.5-6.5h1.3l0.7,3.2c-1.9,9.9-4.3,14.9-7.2,14.9c-6.9-2.4-10.3-8.9-10.3-19.4v-2C93.3,209.4,95.5,201.5,99.8,193z M145.1,222.7
		c2.7,8.5,4.9,13,6.5,13.5h0.7c6-4.2,9.1-7.6,9.1-10.3v-0.6c-2.9-6.9-5.5-10.3-7.8-10.3h-0.7C147.6,216.2,145.1,218.7,145.1,222.7z
		 M425,235v1.3c0,2.4,1.1,4.1,3.2,5.2h4.6c5.5,0,10.8-3.4,16.1-10.3c-5.6-6.9-10.6-10.3-14.8-10.3h-0.7
		C428.6,225.3,425.8,230.1,425,235z M533.6,225.9v0.7c0,1.3,2.8,2.1,8.4,2.6c5.2-0.5,7.8-1.1,7.8-2c0-1.8-2.8-3.6-8.4-5.2h-2
		C537.1,222,535.1,223.3,533.6,225.9z M200.1,247.9h0.6c7.4-3.1,11-6.1,11-9.1c-1.1-7.2-2.4-11.3-3.9-12.2h-0.7
		C205.2,226.6,202.9,233.7,200.1,247.9z M285.4,251.8h0.6l-2.6,12.3c0.7,6.9,2.5,10.3,5.2,10.3c1.3,0,2.4-1.3,3.3-3.9h0.6l1.3,1.3
		c-1.5,6.4-3.9,9.7-7.1,9.7h-1.3c-3.9-3.6-5.9-7.7-5.9-12.2C281.8,258.2,283.7,252.4,285.4,251.8z M637.1,255.6l1.3,1.3
		c-2,8.6-5,12.9-9.1,12.9h-0.7l-5.2-1.3h-0.6c-3.4,2.6-6,3.9-7.8,3.9h-2c-1.6,0-3.5-0.9-5.8-2.6c-5.3,0-14,4.3-25.9,12.9
		c-5.2,3-9.7,4.6-13.6,4.6v-0.7l34.9-22.6c3,0,4.6-0.4,4.6-1.3l9.1,3.2c4,0,7-2.4,9.1-7.1h0.6c2.4,3,4.4,4.5,6,4.5
		c1.7,0,2.7-1.9,3-5.8L637.1,255.6z M156.1,269.3l0.6,1.9c0,3.6-10.3,8.7-31,15.5c-4.1,2.2-11.9,5-23.3,8.4l-0.6-0.7v-0.6
		c0-4.2,8.6-8.7,25.9-13.6C144.7,272.9,154.2,269.3,156.1,269.3z M202,269.9v2c5.7,6.4,12,9.7,18.8,9.7c1.7,0,3-0.9,3.9-2.6v-0.6
		c0-4.3-5.6-7.1-16.8-8.4H202z"/>
</g>
</svg>
